<svg xmlns="http://www.w3.org/2000/svg" viewBox="0 0 240 280" fill="none">
  <!-- Outer medallion -->
  <circle cx="120" cy="125" r="105" fill="#8B0000" stroke="#d4af37" stroke-width="3"/>
  <circle cx="120" cy="125" r="95" fill="none" stroke="#d4af37" stroke-width="1.5" stroke-dasharray="4 3"/>
  <circle cx="120" cy="125" r="88" fill="none" stroke="rgba(212,175,55,0.3)" stroke-width="1"/>
  <!-- Inner field -->
  <circle cx="120" cy="125" r="70" fill="#6b0000"/>
  <!-- Shield -->
  <path d="M95 90 L95 130 C95 155 120 165 120 165 C120 165 145 155 145 130 L145 90Z" fill="none" stroke="#d4af37" stroke-width="2.5"/>
  <path d="M100 95 L100 128 C100 150 120 159 120 159 C120 159 140 150 140 128 L140 95Z" fill="#d4af37" opacity="0.15"/>
  <!-- Scroll/quill inside shield -->
  <rect x="110" y="102" width="20" height="38" rx="3" fill="#d4af37" opacity="0.6"/>
  <line x1="114" y1="110" x2="126" y2="110" stroke="#6b0000" stroke-width="1"/>
  <line x1="114" y1="116" x2="126" y2="116" stroke="#6b0000" stroke-width="1"/>
  <line x1="114" y1="122" x2="126" y2="122" stroke="#6b0000" stroke-width="1"/>
  <line x1="114" y1="128" x2="122" y2="128" stroke="#6b0000" stroke-width="1"/>
  <!-- Text -->
  <text x="120" y="175" text-anchor="middle" font-family="Georgia, serif" font-size="9" font-weight="700" fill="#d4af37" letter-spacing="1">WILLIAM L. CRUMP</text>
  <text x="120" y="190" text-anchor="middle" font-family="Georgia, serif" font-size="9" fill="rgba(212,175,55,0.7)" letter-spacing="1">AWARDEE</text>
  <!-- Ribbon -->
  <rect x="85" y="232" width="70" height="2" rx="1" fill="#d4af37" opacity="0.5"/>
  <!-- Bottom banner -->
  <path d="M70 245 L90 240 L120 244 L150 240 L170 245 L165 255 L150 250 L120 254 L90 250 L75 255Z" fill="#8B0000" stroke="#d4af37" stroke-width="1"/>
  <text x="120" y="251" text-anchor="middle" font-family="Georgia, serif" font-size="7.5" font-weight="700" fill="#d4af37" letter-spacing="2">KAΨ</text>
</svg>